<?xml version="1.0" encoding="iso-8859-1"?>
<!-- Generator: Adobe Illustrator 19.0.0, SVG Export Plug-In . SVG Version: 6.00 Build 0)  -->
<svg version="1.1" id="Capa_1" xmlns="http://www.w3.org/2000/svg" xmlns:xlink="http://www.w3.org/1999/xlink" x="0px" y="0px"
	 viewBox="0 0 512.001 512.001" style="enable-background:new 0 0 512.001 512.001;" xml:space="preserve">
<path style="fill:#FF9801;" d="M349.871,155.052v1.11c-0.025,6.455-0.886,12.88-2.56,19.114c-6.54,23.993-8.651,48.977-6.229,73.728
	c0.171,2.048,0.256,4.181,0.256,6.315c-0.528,9.27-3.534,18.229-8.704,25.941c-2.854,4.516-5.988,8.848-9.387,12.97
	c-10.61,12.499-22.446,23.906-35.328,34.048c-12.511,10.167-29.125,13.75-44.714,9.643c-7.013-1.743-13.546-5.039-19.114-9.643
	c-12.882-10.142-24.718-21.549-35.328-34.048c-3.904-4.68-7.415-9.675-10.496-14.933c-4.577-7.194-7.195-15.461-7.595-23.978
	c0-2.133,0.085-4.267,0.256-6.315c2.421-24.75,0.31-49.734-6.229-73.728c-1.432-5.324-2.262-10.791-2.474-16.299
	c-0.085-0.938-0.085-1.877-0.085-2.816v-1.11l9.728,1.622c19.127,3.143,38.413,5.222,57.77,6.229
	c4.352,0.256,8.789,0.426,13.226,0.512h0.683c12.885,0.341,25.856,0.171,38.827-0.512c13.995-0.768,27.904-2.048,41.813-3.925
	c5.291-0.597,10.667-1.451,15.958-2.304L349.871,155.052z"/>
<path style="fill:#FFE0B2;" d="M324.271,155.052v1.11c0,0.938,0,1.877-0.085,2.816c-0.213,5.508-1.043,10.975-2.475,16.299
	c-6.54,23.993-8.651,48.977-6.229,73.728c0.171,2.048,0.256,4.181,0.256,6.315c-0.528,9.27-3.534,18.229-8.704,25.941
	c-2.854,4.516-5.988,8.848-9.387,12.97c-10.61,12.499-22.446,23.906-35.328,34.048c-5.569,4.604-12.101,7.9-19.115,9.643
	c-7.013-1.743-13.546-5.039-19.114-9.643c-12.882-10.142-24.718-21.549-35.328-34.048c-3.904-4.68-7.415-9.675-10.496-14.933
	c-4.577-7.194-7.195-15.461-7.595-23.978c0-2.133,0.085-4.267,0.256-6.315c2.421-24.75,0.31-49.734-6.229-73.728
	c-1.432-5.324-2.262-10.791-2.474-16.299c13.91,1.877,27.818,3.158,41.812,3.925c12.97,0.682,25.941,0.853,38.827,0.512h0.683
	c4.437-0.085,8.874-0.256,13.226-0.512c19.357-1.007,38.643-3.086,57.77-6.229L324.271,155.052z"/>
<path style="fill:#FF9801;" d="M318.212,323.669c-2.166,14.895-2.023,30.034,0.426,44.885c-9.071,3.81-18.693,6.144-28.502,6.912
	c-25.6,0-34.133,34.133-34.133,34.133c-2.357-8.616-6.548-16.621-12.288-23.466c-5.328-6.634-13.337-10.546-21.845-10.667
	c-9.809-0.768-19.431-3.102-28.502-6.912c2.449-14.851,2.593-29.991,0.426-44.885v-0.171c-0.341-2.73-0.682-5.376-1.022-7.851
	c-1.367-9.301-2.987-16.981-4.011-21.418c10.611,12.499,22.446,23.906,35.328,34.048c18.596,15.103,45.233,15.103,63.83,0
	c1.877-1.536,3.754-3.073,5.717-4.778c10.761-8.812,20.675-18.611,29.611-29.269c-1.023,4.437-2.645,12.117-4.011,21.418
	C318.896,318.209,318.555,320.854,318.212,323.669z"/>
<path style="fill:#FFE0B2;" d="M294.064,368.555c-9.07,3.81-18.693,6.144-28.502,6.912c-8.508,0.12-16.518,4.032-21.844,10.667
	c-5.328-6.634-13.337-10.546-21.845-10.667c-9.809-0.768-19.431-3.102-28.502-6.912c2.449-14.851,2.593-29.991,0.426-44.885v-0.171
	c1.963,1.707,3.84,3.243,5.718,4.778c12.361,10.059,28.745,13.697,44.203,9.814c15.458,3.884,31.842,0.247,44.203-9.814
	c1.877-1.536,3.754-3.073,5.717-4.778v0.171C291.47,338.564,291.615,353.704,294.064,368.555z"/>
<path d="M256.005,418.121h-0.017c-3.906-0.002-7.309-2.661-8.258-6.45c-0.066-0.258-7.291-27.671-25.857-27.671
	c-10.831-0.705-21.468-3.222-31.466-7.445c-3.967-1.468-6.259-5.623-5.383-9.762c2.296-13.939,2.397-28.15,0.3-42.121
	c-0.333-2.754-0.675-5.366-1.008-7.891c-1.367-9.313-3.008-16.929-3.867-20.629c-1.061-4.592,1.802-9.174,6.394-10.235
	c3.167-0.731,6.475,0.4,8.531,2.918c10.223,12.056,21.639,23.046,34.075,32.804c15.463,12.557,37.608,12.568,53.084,0.025
	c12.449-9.764,23.876-20.763,34.108-32.829c2.98-3.651,8.356-4.194,12.007-1.214c2.518,2.055,3.65,5.363,2.918,8.531
	c-0.859,3.7-2.5,11.316-3.883,20.741c-0.316,2.409-0.658,5.017-0.991,7.796c-2.097,13.965-1.996,28.171,0.3,42.104
	c0.876,4.138-1.415,8.295-5.383,9.762c-9.998,4.223-20.635,6.74-31.466,7.445c-18.567,0-25.792,27.413-25.858,27.692
	C263.312,415.473,259.908,418.118,256.005,418.121z M202.947,362.875c6.075,2.271,12.452,3.638,18.925,4.059
	c14.406,0.484,27.441,8.671,34.133,21.438c6.692-12.766,19.727-20.953,34.133-21.438c6.473-0.42,12.849-1.788,18.925-4.059
	c-1.357-13.381-1.131-26.876,0.675-40.204v-0.029c0.091-0.729,0.184-1.446,0.266-2.154c-5.108,4.742-10.684,9.55-16.725,14.425
	c-21.743,17.618-52.851,17.607-74.583-0.025c-6.016-4.854-11.581-9.653-16.692-14.396c0.083,0.708,0.175,1.425,0.266,2.151
	C204.077,335.98,204.304,349.484,202.947,362.875z"/>
<path d="M264.538,264.534h-17.066c-4.713,0-8.533-3.82-8.533-8.533c0-4.713,3.82-8.533,8.533-8.533h17.066
	c4.713,0,8.533,3.82,8.533,8.533C273.071,260.714,269.251,264.534,264.538,264.534z"/>
<path d="M230.404,204.8h-34.133c-4.713,0-8.533-3.82-8.533-8.533c0-4.713,3.82-8.533,8.533-8.533h34.133
	c4.713,0,8.533,3.82,8.533,8.533C238.938,200.98,235.117,204.8,230.404,204.8z"/>
<path d="M315.738,204.8h-34.133c-4.713,0-8.533-3.82-8.533-8.533c0-4.713,3.82-8.533,8.533-8.533h34.133
	c4.713,0,8.533,3.82,8.533,8.533C324.271,200.98,320.451,204.8,315.738,204.8z"/>
<path d="M273.072,298.667h-34.133c-4.713,0-8.533-3.82-8.533-8.533s3.82-8.533,8.533-8.533h34.133c4.713,0,8.533,3.82,8.533,8.533
	S277.784,298.667,273.072,298.667z"/>
<path d="M213.338,221.868c-4.712,0.001-8.532-3.817-8.533-8.529c0-0.001,0-0.003,0-0.004v-17.066c0-4.713,3.82-8.533,8.533-8.533
	c4.713,0,8.533,3.82,8.533,8.533v17.066c0.001,4.712-3.817,8.532-8.529,8.533C213.341,221.868,213.339,221.868,213.338,221.868z"/>
<path d="M298.671,221.868c-4.712,0.001-8.532-3.817-8.533-8.529c0-0.001,0-0.003,0-0.004v-17.066c0-4.713,3.82-8.533,8.533-8.533
	c4.713,0,8.533,3.82,8.533,8.533v17.066c0.001,4.712-3.817,8.532-8.529,8.533C298.674,221.868,298.673,221.868,298.671,221.868z"/>
<path d="M87.38,424.959c-4.71-0.001-8.528-3.821-8.526-8.531c0.001-1.994,0.7-3.924,1.975-5.456c1.434-1.73,2.975-3.371,4.608-5.008
	c3.333-3.332,8.735-3.33,12.067,0.003c3.323,3.326,3.331,8.712,0.017,12.047c-1.267,1.271-2.459,2.529-3.575,3.867
	C92.326,423.834,89.918,424.963,87.38,424.959z"/>
<path d="M74.497,443.734c-4.714-0.006-8.531-3.832-8.525-8.546c0.001-1.216,0.262-2.418,0.766-3.525
	c1.139-2.395,2.438-4.711,3.892-6.929c2.538-3.97,7.816-5.131,11.785-2.592c3.957,2.53,5.126,7.782,2.614,11.751
	c-1.032,1.549-1.954,3.168-2.758,4.846C80.882,441.782,77.843,443.735,74.497,443.734z"/>
<g>
	<path style="fill:#4E342E;" d="M193.37,368.555c-19.53-7.733-38.492-16.829-56.746-27.221c-0.181-3.377,1.401-6.607,4.181-8.533
		c17.066-17.066,51.199-17.066,51.199-17.066l0.768-0.085c0.341,2.56,0.681,5.206,1.022,8.021
		C195.963,338.564,195.819,353.705,193.37,368.555z"/>
	<path style="fill:#4E342E;" d="M375.386,341.334c-18.253,10.392-37.216,19.488-56.746,27.221
		c-2.449-14.851-2.593-29.991-0.426-44.885c0.341-2.816,0.682-5.462,1.022-8.021l0.768,0.085c0,0,34.133,0,51.199,17.066
		C373.985,334.726,375.568,337.956,375.386,341.334z"/>
</g>
<path d="M193.372,377.088c-1.016,0-2.023-0.181-2.975-0.537c-20.02-7.907-39.453-17.227-58.15-27.892
	c-2.714-1.622-4.311-4.609-4.15-7.767c0.077-5.793,2.784-11.238,7.358-14.796c19.025-18.22,53.292-18.875,56.375-18.895
	c4.493-0.16,8.454,2.925,9.4,7.321c0.349,2.591,0.692,5.271,1.042,8.12c2.326,15.822,2.14,31.911-0.55,47.675
	C200.889,374.263,197.405,377.088,193.372,377.088z M147.896,337.83c8.4,4.563,23.367,12.371,38.541,18.775
	c0.651-10.656,0.277-21.349-1.117-31.933v-0.012C171.825,325.284,158.81,329.864,147.896,337.83z"/>
<path d="M318.637,377.088c-4.034,0-7.517-2.824-8.35-6.771c-2.69-15.754-2.875-31.834-0.55-47.646
	c0.349-2.88,0.692-5.558,1.042-8.15c0.6-4.599,4.774-7.869,9.383-7.354c1.367,0.033,36.883,0.25,56.392,18.93
	c4.574,3.557,7.281,9.002,7.358,14.796c0.16,3.158-1.436,6.145-4.15,7.767c-18.697,10.665-38.13,19.985-58.15,27.892
	C320.662,376.906,319.654,377.088,318.637,377.088z M326.697,324.621l-0.008,0.079c-1.394,10.575-1.768,21.259-1.117,31.904
	c15.166-6.404,30.134-14.212,38.541-18.771C353.186,329.894,340.185,325.303,326.697,324.621z"/>
<path d="M136.621,349.867h-0.083c-4.713-0.023-8.514-3.863-8.492-8.575c0.023-4.713,3.863-8.514,8.575-8.492
	c4.713,0.023,8.514,3.863,8.492,8.575C145.09,346.056,141.302,349.844,136.621,349.867z"/>
<path style="fill:#D84315;" d="M453.721,481.195l-3.84-11.862l-7.424-23.296c-1.351-3.741-3.007-7.365-4.949-10.837
	c-1.023-2.048-2.133-3.925-3.328-5.888c-1.122-1.961-2.377-3.842-3.755-5.632c-1.365-1.877-2.73-3.67-4.267-5.462
	c-0.286-0.418-0.599-0.817-0.937-1.195c-1.537-1.707-3.073-3.414-4.693-5.034c-17.612-17.663-41.449-27.713-66.39-27.989
	c17.92-22.358,21.674-35.328,21.248-42.666c-0.938,0.597-17.322,9.899-36.437,18.688c-4.779,2.219-9.642,4.352-14.507,6.315
	c-1.963,0.768-3.925,1.536-5.802,2.219c-9.071,3.81-18.693,6.144-28.502,6.912c-10.689,0.403-20.407,6.312-25.685,15.616
	c-3.747,5.704-6.596,11.949-8.448,18.517v8.533h25.6c9.414,0.028,17.039,7.653,17.066,17.066v68.267h138.751
	c9.437,0.008,17.095-7.635,17.103-17.072C454.528,484.63,454.256,482.876,453.721,481.195z"/>
<path style="fill:#FF5722;" d="M298.671,503.466V435.2c-0.028-9.414-7.653-17.039-17.066-17.066h-25.6V409.6
	c1.852-6.568,4.702-12.814,8.448-18.517c5.278-9.305,14.996-15.213,25.685-15.616c9.809-0.768,19.431-3.102,28.502-6.912
	c1.877-0.682,3.84-1.451,5.802-2.219c4.864-1.963,9.727-4.096,14.507-6.315c-0.171,7.595-4.608,20.224-21.248,41.046
	c24.941,0.277,48.778,10.326,66.389,27.989c1.621,1.622,3.158,3.328,4.693,5.034c0.339,0.376,0.652,0.776,0.937,1.195
	c1.537,1.792,2.902,3.584,4.267,5.462c1.379,1.79,2.634,3.671,3.755,5.632c1.195,1.963,2.304,3.84,3.328,5.888
	c1.942,3.472,3.597,7.096,4.95,10.837l7.424,23.296l3.84,11.862c0.532,1.685,0.819,3.439,0.853,5.206H298.671z"/>
<path style="fill:#F44335;" d="M338.948,358.4v1.622c-4.779,2.219-9.642,4.352-14.507,6.315
	C332.719,361.985,338.436,358.742,338.948,358.4z"/>
<path d="M437.421,512h-138.75c-4.712,0.001-8.532-3.817-8.533-8.529c0-0.001,0-0.003,0-0.004v-68.267
	c-0.005-4.711-3.822-8.529-8.533-8.533h-25.6c-4.712,0.001-8.532-3.817-8.533-8.529c0-0.001,0-0.003,0-0.004v-8.533
	c-0.001-0.699,0.085-1.395,0.258-2.071c0.409-1.658,10.508-40.596,42.408-40.596c8.794-0.767,17.411-2.92,25.533-6.379
	c19.038-7.568,37.531-16.439,55.35-26.55c4.057-2.407,9.296-1.069,11.703,2.988c0.695,1.171,1.099,2.491,1.18,3.849
	c-0.661,13.177-5.507,25.799-13.833,36.033c21.412,3.535,41.173,13.706,56.492,29.079c1.734,1.734,3.375,3.549,5.008,5.37
	c0.609,0.712,1.033,1.233,1.358,1.687c1.575,1.858,3,3.721,4.4,5.659c1.575,2.047,3.007,4.201,4.284,6.446
	c1.183,1.941,2.409,4.021,3.533,6.291c2.096,3.749,3.877,7.665,5.325,11.708l11.366,35.45c4.318,13.472-3.105,27.894-16.577,32.212
	C442.727,511.59,440.082,512.002,437.421,512z M307.205,494.933h130.216c4.721,0.012,8.559-3.805,8.571-8.526
	c0.002-0.891-0.135-1.776-0.405-2.625l-11.266-35.154c-1.168-3.193-2.591-6.287-4.258-9.25c-1.108-2.217-2.116-3.888-3.175-5.638
	c-0.974-1.7-2.059-3.333-3.25-4.887c-1.342-1.85-2.566-3.462-3.95-5.071c-0.334-0.386-0.633-0.802-0.892-1.241
	c-1.358-1.412-2.8-3.012-4.309-4.529c-16.043-16.082-37.752-25.23-60.467-25.479c-4.713-0.065-8.481-3.939-8.415-8.652
	c0.026-1.9,0.685-3.736,1.874-5.218c5.162-6.271,9.781-12.971,13.808-20.025c-12.878,6.712-26.124,12.692-39.675,17.913
	c-10.001,4.227-20.641,6.744-31.475,7.449c-15.517,0-23.108,19.15-25.225,25.6h16.692c14.132,0.016,25.585,11.468,25.6,25.6v59.731
	H307.205z"/>
<path d="M425.222,425.558c-2.423,0.003-4.734-1.027-6.35-2.833c-1.434-1.6-2.875-3.196-4.391-4.721
	c-3.322-3.341-3.308-8.744,0.033-12.067c3.341-3.322,8.744-3.308,12.067,0.033c1.716,1.725,3.359,3.537,4.992,5.354
	c3.148,3.507,2.857,8.902-0.65,12.05C429.356,424.781,427.326,425.559,425.222,425.558L425.222,425.558z"/>
<path d="M437.513,443.734c-3.346,0.002-6.386-1.952-7.775-4.996c-0.805-1.678-1.727-3.296-2.758-4.846
	c-1.003-1.759-2.122-3.449-3.35-5.058c-1.334-1.825-2.566-3.45-3.958-5.075c-3.061-3.585-2.635-8.973,0.95-12.033
	c3.585-3.06,8.973-2.635,12.034,0.95c1.675,1.967,3.175,3.925,4.675,5.979c1.569,2.057,3,4.216,4.284,6.462
	c1.369,2.095,2.591,4.283,3.658,6.546c1.953,4.291,0.057,9.351-4.234,11.304C439.931,443.47,438.729,443.732,437.513,443.734z"/>
<path style="fill:#F57C00;" d="M298.671,435.2v68.267h-42.666v-85.333h25.6C291.019,418.161,298.644,425.786,298.671,435.2z"/>
<path d="M298.671,512h-42.666c-4.712,0.001-8.532-3.817-8.533-8.529c0-0.001,0-0.003,0-0.004v-85.333
	c-0.001-4.712,3.817-8.532,8.529-8.533c0.001,0,0.003,0,0.004,0h25.6c14.132,0.016,25.585,11.468,25.6,25.6v68.267
	c0.001,4.712-3.817,8.532-8.529,8.533C298.674,512,298.673,512,298.671,512z M264.538,494.933h25.6V435.2
	c-0.005-4.711-3.822-8.529-8.533-8.533h-17.067V494.933z"/>
<path d="M375.471,349.867h-0.083c-4.713-0.023-8.514-3.863-8.492-8.575c0.023-4.712,3.863-8.514,8.575-8.492
	c4.713,0.023,8.514,3.863,8.492,8.575C383.939,346.056,380.152,349.844,375.471,349.867z"/>
<path d="M128.005,443.734h-53.5c-4.713,0-8.533-3.82-8.533-8.533s3.82-8.533,8.533-8.533h53.499c4.713,0,8.533,3.82,8.533,8.533
	C136.538,439.913,132.717,443.734,128.005,443.734z"/>
<path d="M110.938,477.867H62.13c-4.713,0-8.533-3.82-8.533-8.533s3.82-8.533,8.533-8.533h48.808c4.713,0,8.533,3.82,8.533,8.533
	C119.471,474.046,115.651,477.867,110.938,477.867z"/>
<path d="M437.504,443.734h-53.499c-4.713,0-8.533-3.82-8.533-8.533s3.82-8.533,8.533-8.533h53.499c4.713,0,8.533,3.82,8.533,8.533
	C446.037,439.913,442.217,443.734,437.504,443.734z"/>
<path d="M449.879,477.867h-48.808c-4.713,0-8.533-3.82-8.533-8.533s3.82-8.533,8.533-8.533h48.808c4.713,0,8.533,3.82,8.533,8.533
	C458.412,474.046,454.592,477.867,449.879,477.867z"/>
<path style="fill:#F44335;" d="M229.636,162.901c-19.357-1.007-38.643-3.086-57.77-6.229l-9.728-1.622l-8.533-1.451v-42.666
	c0.031-41.648,30.103-77.199,71.169-84.138c-0.832,2.968-1.149,6.056-0.939,9.13l1.963,42.666L229.636,162.901z"/>
<path d="M229.638,171.433c-0.15,0-0.3-0.004-0.45-0.012c-19.674-1.029-39.276-3.142-58.716-6.33l-18.3-3.079
	c-4.101-0.698-7.101-4.253-7.1-8.413v-42.666c-0.144-45.881,33.022-85.088,78.292-92.554c2.86-0.497,5.775,0.512,7.717,2.671
	c1.951,2.14,2.683,5.125,1.941,7.925c-0.582,2.03-0.81,4.146-0.675,6.254l5.816,127.283c0.208,4.713-3.443,8.703-8.156,8.913
	C229.885,171.431,229.761,171.433,229.638,171.433L229.638,171.433z M162.139,146.396l11.125,1.858
	c15.425,2.546,31.334,4.408,47.417,5.541l-5.3-115.979c-31.799,10.145-53.349,39.738-53.241,73.117v35.463H162.139z"/>
<path style="fill:#C52828;" d="M358.405,110.933V153.6l-8.533,1.451l-9.728,1.622c-19.127,3.143-38.413,5.222-57.77,6.229
	l3.84-84.309l1.963-42.666c0.209-3.075-0.109-6.163-0.941-9.13C328.302,33.734,358.373,69.285,358.405,110.933z"/>
<path style="fill:#F44335;" d="M332.804,110.933V153.6l-8.533,1.451l-9.728,1.622c-19.127,3.143-38.413,5.222-57.77,6.229
	l3.84-84.309l1.963-42.666c0.209-3.075-0.109-6.163-0.941-9.13C302.703,33.734,332.773,69.285,332.804,110.933z"/>
<path d="M282.371,171.433c-4.718-0.005-8.538-3.834-8.533-8.552c0-0.123,0.003-0.246,0.008-0.369l5.8-126.979
	c0.165-2.208-0.058-4.428-0.658-6.559c-1.203-4.557,1.515-9.227,6.072-10.43c1.17-0.309,2.392-0.366,3.586-0.166
	c45.269,7.466,78.435,46.673,78.291,92.554V153.6c0.002,4.16-2.998,7.715-7.1,8.413l-18.292,3.075
	c-19.444,3.191-39.048,5.305-58.725,6.334C282.672,171.429,282.521,171.433,282.371,171.433z M296.621,37.817l-5.292,115.979
	c16.083-1.133,31.991-2.996,47.425-5.546l11.117-1.854v-35.463C349.979,77.553,328.425,47.957,296.621,37.817L296.621,37.817z"/>
<path style="fill:#D84315;" d="M288.175,35.926l-1.963,42.666l-3.84,84.309c-12.289,0.682-24.663,0.853-36.95,0.512
	c-0.852,0.043-1.707,0.043-2.56,0c-4.437-0.085-8.874-0.256-13.226-0.512l-3.84-84.309l-1.963-42.666
	c-0.209-3.075,0.109-6.163,0.941-9.13c3.221-10.873,13.235-18.315,24.575-18.262h13.312c11.325-0.005,21.312,7.416,24.575,18.262
	C288.067,29.763,288.384,32.851,288.175,35.926z"/>
<path style="fill:#FF5722;" d="M264.453,35.926l-1.963,42.666l-3.84,84.309c-4.352,0.256-8.789,0.426-13.226,0.512
	c-0.852,0.043-1.707,0.043-2.56,0c-4.437-0.085-8.874-0.256-13.226-0.512l-3.84-84.309l-1.963-42.666
	c-0.209-3.075,0.108-6.163,0.939-9.13c2.731-9.009,10.157-15.814,19.37-17.75c9.213,1.936,16.639,8.74,19.37,17.75
	C264.345,29.763,264.662,32.851,264.453,35.926z"/>
<path d="M256.005,172.137c-8.958,0-17.925-0.237-26.825-0.717c-4.379-0.235-7.867-3.753-8.066-8.133l-5.8-126.971
	c-0.264-3.94,0.144-7.897,1.208-11.7C220.74,10.004,234.136-0.042,249.346,0h13.317c15.114-0.071,28.458,9.847,32.75,24.337
	c1.116,3.936,1.547,8.034,1.274,12.117l-5.791,126.833c-0.2,4.381-3.687,7.897-8.066,8.134
	C273.929,171.9,264.963,172.137,256.005,172.137z M237.805,154.73c12.117,0.458,24.283,0.458,36.4,0l5.442-119.195l0.017-0.304
	c0.135-2.108-0.093-4.224-0.675-6.254c-2.223-7.133-8.855-11.97-16.326-11.908h-13.317c-7.569-0.035-14.251,4.931-16.4,12.187
	c-0.534,1.944-0.737,3.964-0.6,5.975L237.805,154.73z"/>
<g>
	<path style="fill:#C52828;" d="M178.266,279.296c-16.641-1.28-65.365-67.498-67.413-101.803
		c-0.768-14.105,10.044-26.16,24.147-26.929c2.173-0.118,4.354,0.041,6.487,0.475l12.117,2.389v0.171l8.533,1.451v1.11
		c0.025,6.455,0.886,12.88,2.56,19.114c6.54,23.993,8.651,48.977,6.229,73.728c-0.171,2.048-0.256,4.181-0.256,6.315
		C171.071,263.836,173.689,272.102,178.266,279.296z"/>
	<path style="fill:#C52828;" d="M401.156,179.712C399.108,214.358,349.444,281.6,333.23,281.6l-0.597-0.341
		c5.17-7.713,8.175-16.671,8.704-25.941c0-2.133-0.085-4.267-0.256-6.315c-2.421-24.75-0.31-49.734,6.229-73.728
		c1.675-6.234,2.535-12.659,2.56-19.115v-1.11l8.533-1.451l0.426,1.963l11.69-2.304c13.842-2.815,27.345,6.124,30.161,19.967
		C401.115,175.359,401.275,177.539,401.156,179.712z"/>
</g>
<path d="M178.263,287.83c-0.217,0-0.433-0.008-0.65-0.025c-23.225-1.784-73.175-74.646-75.274-109.804
	c-1.05-18.806,13.343-34.902,32.149-35.952c2.916-0.163,5.84,0.05,8.701,0.632l12.067,2.379c0.483,0.093,0.957,0.23,1.416,0.409
	l6.9,1.171c4.101,0.698,7.101,4.253,7.1,8.413v1.109c0.03,5.723,0.795,11.418,2.275,16.946c6.796,24.957,8.993,50.943,6.483,76.688
	c-0.15,1.75-0.225,3.638-0.225,5.525c0.413,7.014,2.632,13.801,6.442,19.704c2.362,4.076,0.973,9.296-3.104,11.658
	C181.241,287.434,179.766,287.83,178.263,287.83L178.263,287.83z M136.355,159.064c-9.409,0.017-17.025,7.658-17.008,17.068
	c0,0.294,0.008,0.588,0.025,0.882c1.334,22.208,25.008,59.1,42.784,79.383c-0.008-0.359-0.017-0.721-0.017-1.079
	c0-2.379,0.091-4.759,0.291-7.042c2.327-23.741,0.308-47.708-5.958-70.725c-1.323-4.997-2.202-10.102-2.625-15.255l-1.675-0.283
	c-0.632-0.107-1.25-0.284-1.842-0.529l-10.492-2.071C138.691,159.182,137.525,159.065,136.355,159.064z"/>
<path d="M154.463,162.134c-0.568,0-1.134-0.056-1.691-0.167l-0.85-0.171c-4.623-0.919-7.626-5.411-6.708-10.034
	c0.919-4.623,5.411-7.626,10.034-6.708c0.013,0.003,0.027,0.005,0.04,0.008l0.85,0.171c4.621,0.929,7.613,5.428,6.683,10.049
	C162.021,159.265,158.525,162.13,154.463,162.134z"/>
<path d="M178.78,287.917c-1.496-0.029-2.972-0.365-4.333-0.987c-4.311-2.241-5.987-7.552-3.747-11.862
	c2.241-4.311,7.552-5.987,11.862-3.747c4.311,2.241,5.987,7.552,3.747,11.862C184.841,286.006,181.961,287.818,178.78,287.917z"/>
<path d="M256.013,348.121c-13.592,0.026-26.776-4.65-37.316-13.234c-13.346-10.484-25.59-22.299-36.542-35.263
	c-4.194-5.034-7.969-10.406-11.283-16.058c-5.335-8.49-8.346-18.231-8.733-28.25c0-2.379,0.091-4.759,0.291-7.042
	c2.327-23.741,0.308-47.708-5.958-70.725c-1.87-6.978-2.833-14.168-2.867-21.391v-1.109c-0.002-4.71,3.814-8.531,8.525-8.533
	c0.472,0,0.944,0.038,1.409,0.116l9.725,1.621c18.814,3.084,37.785,5.129,56.825,6.125c17.263,0.917,34.562,0.917,51.825,0
	c19.046-0.995,38.022-3.041,56.842-6.129l9.716-1.617c4.646-0.776,9.041,2.362,9.817,7.008c0.078,0.466,0.117,0.936,0.116,1.409
	v1.109c-0.031,7.188-0.986,14.343-2.841,21.288c-6.28,23.031-8.307,47.013-5.983,70.771c0.2,2.341,0.291,4.721,0.291,7.1
	c-0.471,10.829-3.9,21.322-9.916,30.337c-3.074,4.87-6.45,9.541-10.108,13.987c-10.962,12.966-23.214,24.783-36.567,35.271
	C282.753,343.482,269.587,348.149,256.013,348.121z M171.339,165.233c0.391,2.651,0.928,5.279,1.608,7.87
	c6.796,24.957,8.993,50.943,6.483,76.688c-0.15,1.75-0.225,3.638-0.225,5.525c0.413,7.014,2.632,13.801,6.442,19.704
	c2.852,4.85,6.096,9.458,9.7,13.779c10.228,12.069,21.654,23.071,34.1,32.837c15.463,12.557,37.608,12.568,53.084,0.025
	c12.449-9.764,23.876-20.763,34.108-32.829c3.176-3.851,6.107-7.897,8.775-12.117c4.304-6.359,6.854-13.741,7.391-21.4
	c0-1.887-0.075-3.775-0.225-5.583c-2.507-25.761-0.302-51.763,6.508-76.733c0.675-2.557,1.204-5.149,1.583-7.767
	c-19.157,3.109-38.469,5.174-57.849,6.187c-17.868,0.958-35.774,0.958-53.641,0C209.801,170.408,190.492,168.342,171.339,165.233z"
	/>
<path d="M333.229,290.133c-1.497-0.001-2.969-0.395-4.267-1.142c-2.072-1.195-3.608-3.138-4.292-5.429
	c-0.671-2.233-0.438-4.638,0.65-6.7c4.351-6.396,6.933-13.83,7.484-21.546c0-1.887-0.075-3.775-0.225-5.583
	c-2.507-25.761-0.302-51.763,6.508-76.733c1.466-5.495,2.222-11.154,2.25-16.841v-1.108c-0.002-4.16,2.998-7.715,7.1-8.413
	l8.533-1.45c1.909-0.324,3.872,0.01,5.566,0.946l6.334-1.245c18.46-3.729,36.447,8.212,40.177,26.671
	c0.573,2.839,0.783,5.741,0.623,8.633v0.025C407.546,216.172,356.105,290.133,333.229,290.133z M358.004,164.059
	c-0.462,4.519-1.279,8.996-2.442,13.387c-6.28,23.031-8.307,47.013-5.983,70.771c0.2,2.341,0.291,4.721,0.291,7.1
	c0,1.2-0.05,2.409-0.159,3.629c17.708-20.216,41.591-57.362,42.925-79.733c0.495-9.397-6.723-17.417-16.119-17.911
	c-1.44-0.076-2.884,0.031-4.297,0.319l-11.741,2.312C359.664,164.095,358.831,164.137,358.004,164.059z"/>
<path d="M357.546,164.351c-4.712-0.005-8.528-3.829-8.523-8.541c0.004-4.066,2.878-7.564,6.865-8.358l1.275-0.254
	c4.621-0.921,9.113,2.079,10.034,6.7s-2.079,9.113-6.7,10.034l-1.275,0.254C358.67,164.295,358.109,164.35,357.546,164.351z"/>
<path style="fill:#FF5722;" d="M204.805,426.667h-17.066c-1.505,0.001-2.98,0.415-4.267,1.195c2.645,1.494,4.277,4.3,4.267,7.339
	v17.066c-0.006,4.123-1.524,8.101-4.267,11.178c3.203,3.737,7.879,5.888,12.8,5.888c9.414-0.028,17.039-7.653,17.066-17.066V435.2
	C213.325,430.493,209.512,426.68,204.805,426.667z"/>
<path style="fill:#F57C00;" d="M221.871,375.467c-9.809-0.768-19.431-3.102-28.502-6.912c-19.53-7.733-38.492-16.829-56.746-27.221
	c-0.005,5.301,1.222,10.529,3.584,15.274c4.706,9.842,10.641,19.046,17.664,27.392c-0.372-0.015-0.745,0.015-1.11,0.085
	c-1.11,0-2.219,0-3.243,0.085c-1.877,0.085-3.754,0.256-5.546,0.512c-1.262,0.081-2.518,0.252-3.756,0.512
	c-2.991,0.425-5.954,1.023-8.874,1.792c-2.901,0.768-5.718,1.622-8.533,2.645c-1.451,0.512-2.901,1.023-4.352,1.622
	c-11.577,4.83-22.098,11.874-30.976,20.736c-1.45,1.451-2.816,2.901-4.096,4.437c-0.306,0.262-0.591,0.548-0.853,0.853
	c-1.707,2.048-3.414,4.182-4.949,6.4c-1.349,1.811-2.603,3.69-3.755,5.632c-1.195,1.963-2.304,3.84-3.328,5.888
	c-0.598,1.11-1.194,2.133-1.707,3.243c-0.512,0.938-0.939,1.963-1.366,2.901c-0.682,1.536-1.28,3.073-1.877,4.693l-7.424,23.296
	l-3.84,11.862c-2.863,8.992,2.106,18.604,11.098,21.467c1.681,0.535,3.435,0.807,5.199,0.806h181.419V409.6
	C256.005,409.6,247.471,375.467,221.871,375.467z M213.338,452.267c-0.028,9.414-7.653,17.039-17.066,17.066
	c-9.385-0.097-16.97-7.682-17.066-17.066v-17.066c-0.01-3.038,1.621-5.844,4.267-7.339c1.287-0.78,2.762-1.194,4.267-1.195h17.066
	c4.707,0.013,8.52,3.826,8.533,8.533v17.066H213.338z"/>
<path style="fill:#FFB301;" d="M196.271,375.467c-9.809-0.768-19.431-3.102-28.502-6.912c-9.214-3.414-18.944-7.766-27.562-11.947
	c4.706,9.842,10.641,19.046,17.664,27.392c-0.372-0.015-0.745,0.015-1.11,0.085c-1.11,0-2.219,0-3.243,0.085
	c-1.877,0.085-3.754,0.256-5.546,0.512c-1.262,0.081-2.518,0.252-3.756,0.512c-2.991,0.425-5.954,1.023-8.874,1.792
	c-2.901,0.768-5.718,1.622-8.533,2.645c-1.451,0.512-2.901,1.023-4.352,1.622c-11.577,4.83-22.098,11.874-30.976,20.736
	c-1.45,1.451-2.816,2.901-4.096,4.437c-0.306,0.262-0.591,0.548-0.853,0.853c-1.707,2.048-3.414,4.182-4.949,6.4
	c-1.349,1.811-2.603,3.69-3.755,5.632c-1.195,1.963-2.304,3.84-3.328,5.888c-0.598,1.11-1.194,2.133-1.707,3.243
	c-0.512,0.938-0.939,1.963-1.366,2.901c-0.682,1.536-1.28,3.073-1.877,4.693l-7.424,23.296l-3.84,11.862
	c-2.863,8.992,2.106,18.604,11.098,21.467c1.681,0.535,3.435,0.807,5.199,0.806h155.819V409.6
	C230.404,409.6,221.871,375.467,196.271,375.467z M213.338,452.267c-0.028,9.414-7.653,17.039-17.066,17.066
	c-9.385-0.097-16.97-7.682-17.066-17.066v-17.066c-0.01-3.038,1.621-5.844,4.267-7.339c1.287-0.78,2.762-1.194,4.267-1.195h17.066
	c4.707,0.013,8.52,3.826,8.533,8.533v17.066H213.338z"/>
<path d="M256.007,511.999H74.586c-2.671,0-5.3-0.409-7.812-1.216c-6.495-2.067-11.817-6.559-14.962-12.633
	c-3.142-6.084-3.733-13.017-1.658-19.541l11.271-35.158c0.779-2.15,1.441-3.85,2.205-5.566c0.725-1.625,1.171-2.6,1.671-3.525
	c0.213-0.492,0.721-1.441,1.25-2.409l0.433-0.791c1.016-2.042,2.234-4.108,3.555-6.283c1.263-2.125,2.679-4.242,4.2-6.283
	c1.509-2.2,3.379-4.542,5.246-6.775c0.409-0.483,0.813-0.908,1.229-1.309c1.334-1.559,2.746-3.058,4.237-4.55
	c9.708-9.7,21.054-17.291,33.721-22.584c1.646-0.675,3.233-1.241,4.817-1.792c2.963-1.084,6.008-2.009,9.158-2.841
	c2.925-0.766,5.875-1.383,8.816-1.842c-9.871-14.491-14.417-26.358-13.858-36.058c0.171-2.95,1.854-5.6,4.445-7.009
	c2.595-1.416,5.733-1.367,8.296,0.083c17.858,10.166,36.588,19.15,55.667,26.709c8.316,3.491,16.917,5.591,25.725,6.309
	c31.608,0.291,41.638,38.942,42.049,40.6c0.167,0.675,0.254,1.367,0.254,2.067v93.867
	C264.54,508.183,260.72,511.999,256.007,511.999z M157.494,392.525c-1.604,0.091-2.479,0.083-3.283,0.15
	c-1.883,0.091-3.487,0.233-5.021,0.458c-1.521,0.125-2.379,0.233-3.225,0.409c-3.212,0.475-5.85,1.008-8.454,1.691
	c-2.625,0.708-5.204,1.483-7.783,2.417c-1.408,0.5-2.729,0.966-4.046,1.5c-10.546,4.4-20.041,10.767-28.171,18.883
	c-1.263,1.259-2.454,2.517-3.571,3.858c-0.287,0.341-0.596,0.658-0.929,0.95c-1.47,1.759-3.016,3.683-4.408,5.692
	c-1.346,1.817-2.438,3.45-3.442,5.133c-1.113,1.833-2.112,3.516-3.029,5.35l-0.617,1.142c-0.341,0.625-0.679,1.225-0.975,1.867
	c-0.537,1.025-0.779,1.583-1.02,2.125c-0.896,2.017-1.425,3.384-1.955,4.833l-11.163,34.842c-0.679,2.133-0.483,4.45,0.566,6.483
	c1.05,2.025,2.825,3.525,5,4.216c0.85,0.275,1.721,0.409,2.616,0.409h172.887v-84.158c-1.425-4.742-8.954-26.775-25.6-26.775
	c-0.221,0-0.442-0.008-0.667-0.025c-10.733-0.842-21.209-3.375-31.142-7.55c-13.279-5.258-26.466-11.225-39.346-17.792
	c2.909,5.275,7.279,11.875,13.812,20.033c2.096,2.608,2.467,6.208,0.95,9.2C163.965,390.85,160.948,392.708,157.494,392.525z
	 M196.273,477.866c-14.117,0-25.6-11.483-25.6-25.6V435.2c0.025-9.392,7.666-17.033,17.037-17.066h17.096
	c9.392,0.033,17.033,7.674,17.066,17.033v17.1C221.873,466.383,210.39,477.866,196.273,477.866z M187.74,435.2v17.066
	c0,4.709,3.829,8.533,8.533,8.533c4.704,0,8.533-3.825,8.533-8.533V435.2H187.74z"/>
<path style="fill:#FFEB3A;" d="M213.338,435.2v17.066c0,9.426-7.641,17.066-17.066,17.066c-9.425,0-17.066-7.641-17.066-17.066
	V435.2c0.013-4.707,3.826-8.52,8.533-8.533h17.066C209.512,426.68,213.325,430.493,213.338,435.2z"/>
<path d="M196.271,477.867c-14.132-0.016-25.585-11.468-25.6-25.6v-17.066c0.01-9.421,7.645-17.056,17.066-17.066h17.066
	c9.421,0.01,17.056,7.645,17.066,17.066v17.066C221.856,466.398,210.404,477.852,196.271,477.867z M187.738,435.2v17.066
	c0,4.713,3.82,8.533,8.533,8.533c4.713,0,8.533-3.82,8.533-8.533v-17.041L187.738,435.2z"/>
<g>
</g>
<g>
</g>
<g>
</g>
<g>
</g>
<g>
</g>
<g>
</g>
<g>
</g>
<g>
</g>
<g>
</g>
<g>
</g>
<g>
</g>
<g>
</g>
<g>
</g>
<g>
</g>
<g>
</g>
</svg>
