<?xml version="1.0" encoding="iso-8859-1"?>
<!-- Generator: Adobe Illustrator 19.0.0, SVG Export Plug-In . SVG Version: 6.00 Build 0)  -->
<svg version="1.1" id="Layer_1" xmlns="http://www.w3.org/2000/svg" xmlns:xlink="http://www.w3.org/1999/xlink" x="0px" y="0px"
	 viewBox="0 0 512.001 512.001" style="enable-background:new 0 0 512.001 512.001;" xml:space="preserve">
<path style="fill:#F95428;" d="M106.039,362.039L256,512.001l149.962-149.962c82.821-82.821,82.821-217.102,0-299.923l0,0
	c-82.821-82.821-217.102-82.821-299.923,0l0,0C23.217,144.939,23.217,279.218,106.039,362.039z"/>
<circle style="fill:#E6E6E6;" cx="256.005" cy="212.084" r="149.964"/>
<path style="fill:#CCCCCC;" d="M156.934,212.079c0-82.821,44.354-149.962,99.067-149.962c-82.821,0-149.962,67.14-149.962,149.962
	S173.179,362.04,256,362.04C201.288,362.039,156.934,294.9,156.934,212.079z"/>
<path style="fill:#F95428;" d="M240.994,104.825c0,91.758-64.937,76.23-63.526,138.344c0.798,35.068,30.314,55.146,63.444,59.047
	c-7.94-9.176-42.965-54.868,11.374-91.515c1.744,35.322,31.057,40.938,31.057,66.349c0,10.701-2.255,17.887-4.864,22.631
	c27.338-7.147,50.508-26.202,54.271-57.923C342.635,158.469,240.994,104.825,240.994,104.825z"/>
<g>
</g>
<g>
</g>
<g>
</g>
<g>
</g>
<g>
</g>
<g>
</g>
<g>
</g>
<g>
</g>
<g>
</g>
<g>
</g>
<g>
</g>
<g>
</g>
<g>
</g>
<g>
</g>
<g>
</g>
</svg>
