<?xml version="1.0" encoding="iso-8859-1"?>
<!-- Generator: Adobe Illustrator 19.0.0, SVG Export Plug-In . SVG Version: 6.00 Build 0)  -->
<svg version="1.1" id="Layer_1" xmlns="http://www.w3.org/2000/svg" xmlns:xlink="http://www.w3.org/1999/xlink" x="0px" y="0px"
	 viewBox="0 0 509.287 509.287" style="enable-background:new 0 0 509.287 509.287;" xml:space="preserve">
<circle style="fill:#6EB1E1;" cx="254.644" cy="254.644" r="254.644"/>
<polygon style="fill:#F1F3F7;" points="421.128,435.709 88.159,435.709 88.159,187.507 254.644,83.412 421.128,187.507 "/>
<path style="fill:#414753;" d="M470.294,192.593L254.644,26.109L38.993,192.593c-16.275,12.546-16.275,37.298,0,49.844l0,0
	c11.189,8.816,27.126,8.816,38.315,0l176.996-136.985l176.996,136.985c11.189,8.816,27.126,8.816,38.315,0
	C486.57,229.552,486.57,205.139,470.294,192.593z"/>
<polygon style="fill:#F0582F;" points="333.987,270.919 271.597,270.919 271.597,208.191 237.69,208.191 237.69,270.919 
	175.301,270.919 175.301,304.487 237.69,304.487 237.69,367.216 271.597,367.216 271.597,304.487 333.987,304.487 "/>
<g>
</g>
<g>
</g>
<g>
</g>
<g>
</g>
<g>
</g>
<g>
</g>
<g>
</g>
<g>
</g>
<g>
</g>
<g>
</g>
<g>
</g>
<g>
</g>
<g>
</g>
<g>
</g>
<g>
</g>
</svg>
